<svg width="34" height="28" viewBox="0 0 34 28" fill="none" xmlns="http://www.w3.org/2000/svg">
<path d="M16.727 1.75C8.64447 1.75 2.09088 7.37734 2.09088 14.3117C2.09088 19.8625 6.2857 24.5656 12.101 26.2281C12.1825 26.243 12.2658 26.2503 12.3492 26.25C12.8916 26.25 13.1007 25.9164 13.1007 25.6266C13.1007 25.3258 13.0876 24.5383 13.0811 23.4883C12.5969 23.5833 12.1016 23.6328 11.6044 23.6359C8.78822 23.6359 8.14789 21.8039 8.14789 21.8039C7.48142 20.3547 6.52092 19.9664 6.52092 19.9664C5.2468 19.2172 6.51439 19.1953 6.6124 19.1953H6.61893C8.08908 19.3047 8.86009 20.4969 8.86009 20.4969C9.5919 21.5687 10.572 21.8695 11.4476 21.8695C12.0265 21.8598 12.5965 21.748 13.1203 21.5414C13.2509 20.732 13.6299 20.1797 14.0481 19.8625C10.8007 19.5453 7.38341 18.468 7.38341 13.6555C7.38341 12.2828 7.95187 11.1617 8.88623 10.2867C8.73595 9.96953 8.23283 8.68984 9.02998 6.96172C9.1369 6.9403 9.2468 6.93111 9.35668 6.93438C9.88593 6.93438 11.0817 7.10391 13.0549 8.25234C15.4526 7.69087 17.9884 7.69087 20.3861 8.25234C22.3593 7.10391 23.555 6.93438 24.0843 6.93438C24.1942 6.93111 24.3041 6.9403 24.411 6.96172C25.2081 8.68984 24.705 9.96953 24.5547 10.2867C25.4891 11.1672 26.0576 12.2883 26.0576 13.6555C26.0576 18.4789 22.6337 19.5398 19.3733 19.8516C19.896 20.2398 20.3665 21.0055 20.3665 22.1758C20.3665 23.8547 20.3468 25.2109 20.3468 25.6211C20.3468 25.9164 20.5494 26.25 21.0917 26.25C21.1795 26.2503 21.2671 26.243 21.3531 26.2281C27.1749 24.5656 31.3632 19.857 31.3632 14.3117C31.3632 7.37734 24.8096 1.75 16.727 1.75Z" fill="black"/>
</svg>
