<svg width="26" height="25" viewBox="0 0 26 25" fill="none" xmlns="http://www.w3.org/2000/svg">
<g clip-path="url(#clip0_12_828)">
<path d="M12.5165 2.25098C15.8564 2.25098 16.2519 2.26562 17.5654 2.32422C18.7861 2.37793 19.4452 2.58301 19.8847 2.75391C20.4657 2.97852 20.8857 3.25195 21.3202 3.68652C21.7597 4.12598 22.0282 4.54102 22.2529 5.12207C22.4238 5.56152 22.6288 6.22559 22.6825 7.44141C22.7411 8.75977 22.7558 9.15527 22.7558 12.4902C22.7558 15.8301 22.7411 16.2256 22.6825 17.5391C22.6288 18.7598 22.4238 19.4189 22.2529 19.8584C22.0282 20.4395 21.7548 20.8594 21.3202 21.2939C20.8808 21.7334 20.4657 22.002 19.8847 22.2266C19.4452 22.3975 18.7812 22.6025 17.5654 22.6563C16.247 22.7148 15.8515 22.7295 12.5165 22.7295C9.17668 22.7295 8.78117 22.7148 7.4677 22.6563C6.24699 22.6025 5.58781 22.3975 5.14836 22.2266C4.56731 22.002 4.14738 21.7285 3.71281 21.2939C3.27336 20.8545 3.00481 20.4395 2.7802 19.8584C2.6093 19.4189 2.40422 18.7549 2.35051 17.5391C2.29192 16.2207 2.27727 15.8252 2.27727 12.4902C2.27727 9.15039 2.29192 8.75488 2.35051 7.44141C2.40422 6.2207 2.6093 5.56152 2.7802 5.12207C3.00481 4.54102 3.27824 4.12109 3.71281 3.68652C4.15227 3.24707 4.56731 2.97852 5.14836 2.75391C5.58781 2.58301 6.25188 2.37793 7.4677 2.32422C8.78117 2.26562 9.17668 2.25098 12.5165 2.25098ZM12.5165 0C9.12297 0 8.69817 0.0146484 7.36516 0.0732422C6.03703 0.131836 5.12395 0.34668 4.33293 0.654297C3.50774 0.976562 2.80949 1.40137 2.11613 2.09961C1.41789 2.79297 0.993088 3.49121 0.670822 4.31152C0.363205 5.10742 0.148361 6.01562 0.0897675 7.34375C0.0311737 8.68164 0.0165253 9.10645 0.0165253 12.5C0.0165253 15.8936 0.0311737 16.3184 0.0897675 17.6514C0.148361 18.9795 0.363205 19.8926 0.670822 20.6836C0.993088 21.5088 1.41789 22.207 2.11613 22.9004C2.80949 23.5938 3.50774 24.0234 4.32805 24.3408C5.12395 24.6484 6.03215 24.8633 7.36028 24.9219C8.69328 24.9805 9.11809 24.9951 12.5116 24.9951C15.9052 24.9951 16.33 24.9805 17.663 24.9219C18.9911 24.8633 19.9042 24.6484 20.6952 24.3408C21.5156 24.0234 22.2138 23.5938 22.9072 22.9004C23.6005 22.207 24.0302 21.5088 24.3476 20.6885C24.6552 19.8926 24.87 18.9844 24.9286 17.6563C24.9872 16.3232 25.0019 15.8984 25.0019 12.5049C25.0019 9.11133 24.9872 8.68652 24.9286 7.35352C24.87 6.02539 24.6552 5.11231 24.3476 4.32129C24.04 3.49121 23.6152 2.79297 22.9169 2.09961C22.2236 1.40625 21.5253 0.976563 20.705 0.65918C19.9091 0.351562 19.0009 0.136719 17.6728 0.078125C16.3349 0.0146484 15.9101 0 12.5165 0Z" fill="black"/>
<path d="M12.5165 6.0791C8.97157 6.0791 6.0956 8.95508 6.0956 12.5C6.0956 16.0449 8.97157 18.9209 12.5165 18.9209C16.0614 18.9209 18.9374 16.0449 18.9374 12.5C18.9374 8.95508 16.0614 6.0791 12.5165 6.0791ZM12.5165 16.665C10.2167 16.665 8.35146 14.7998 8.35146 12.5C8.35146 10.2002 10.2167 8.33496 12.5165 8.33496C14.8163 8.33496 16.6815 10.2002 16.6815 12.5C16.6815 14.7998 14.8163 16.665 12.5165 16.665Z" fill="black"/>
<path d="M20.6903 5.8252C20.6903 6.65528 20.0165 7.32422 19.1913 7.32422C18.3612 7.32422 17.6923 6.65039 17.6923 5.8252C17.6923 4.99512 18.3661 4.32617 19.1913 4.32617C20.0165 4.32617 20.6903 5 20.6903 5.8252Z" fill="black"/>
</g>
<defs>
<clipPath id="clip0_12_828">
<rect width="25" height="25" fill="white" transform="translate(0.0165253)"/>
</clipPath>
</defs>
</svg>
