<svg width="26" height="25" viewBox="0 0 26 25" fill="none" xmlns="http://www.w3.org/2000/svg">
<g clip-path="url(#clip0_12_827)">
<path d="M23.6742 0H2.37045C1.34995 0 0.52475 0.805664 0.52475 1.80176V23.1934C0.52475 24.1895 1.34995 25 2.37045 25H23.6742C24.6947 25 25.5247 24.1895 25.5247 23.1982V1.80176C25.5247 0.805664 24.6947 0 23.6742 0ZM7.94174 21.3037H4.2308V9.37012H7.94174V21.3037ZM6.08627 7.74414C4.89487 7.74414 3.93295 6.78223 3.93295 5.5957C3.93295 4.40918 4.89487 3.44727 6.08627 3.44727C7.2728 3.44727 8.23471 4.40918 8.23471 5.5957C8.23471 6.77734 7.2728 7.74414 6.08627 7.74414ZM21.8285 21.3037H18.1224V15.5029C18.1224 14.1211 18.098 12.3389 16.1937 12.3389C14.265 12.3389 13.972 13.8477 13.972 15.4053V21.3037H10.2708V9.37012H13.8255V11.001H13.8744C14.3675 10.0635 15.5785 9.07227 17.3802 9.07227C21.1351 9.07227 21.8285 11.543 21.8285 14.7559V21.3037Z" fill="black"/>
</g>
<defs>
<clipPath id="clip0_12_827">
<rect width="25" height="25" fill="white" transform="translate(0.52475)"/>
</clipPath>
</defs>
</svg>
